<svg width="9" height="9" viewBox="0 0 9 9" fill="none" xmlns="http://www.w3.org/2000/svg">
<path d="M4.50004 0.833313C4.6216 0.833313 4.73818 0.881602 4.82413 0.967556C4.91009 1.05351 4.95837 1.17009 4.95837 1.29165V4.04165H7.70837C7.82993 4.04165 7.94651 4.08994 8.03246 4.17589C8.11842 4.26184 8.16671 4.37842 8.16671 4.49998C8.16671 4.62154 8.11842 4.73812 8.03246 4.82407C7.94651 4.91002 7.82993 4.95831 7.70837 4.95831H4.95837V7.70831C4.95837 7.82987 4.91009 7.94645 4.82413 8.0324C4.73818 8.11836 4.6216 8.16665 4.50004 8.16665C4.37848 8.16665 4.2619 8.11836 4.17595 8.0324C4.09 7.94645 4.04171 7.82987 4.04171 7.70831V4.95831H1.29171C1.17015 4.95831 1.05357 4.91002 0.967617 4.82407C0.881663 4.73812 0.833374 4.62154 0.833374 4.49998C0.833374 4.37842 0.881663 4.26184 0.967617 4.17589C1.05357 4.08994 1.17015 4.04165 1.29171 4.04165H4.04171V1.29165C4.04171 1.17009 4.09 1.05351 4.17595 0.967556C4.2619 0.881602 4.37848 0.833313 4.50004 0.833313Z" fill="black"/>
</svg>
