<svg id="Layer_1" data-name="Layer 1" xmlns="http://www.w3.org/2000/svg" viewBox="0 0 964.3 775.63"><defs><style>.cls-1{fill:#020202;}</style></defs><path d="M288,1006a26.56,26.56,0,0,0-4.34,14.22,22.75,22.75,0,0,0,13.73,20.19,26.76,26.76,0,0,0,10.58,2.06,23.78,23.78,0,0,0,10.31-2.17q9.12-4.45,9.12-14.55a15.65,15.65,0,0,0-2.55-8,24.41,24.41,0,0,0-7.65-7.6L298.75,997.7Q288,991,288,980.34c0-.73,0-1.45.11-2.17a19.4,19.4,0,0,1,6.68-13.63q6-5.25,16.11-5.26a123.93,123.93,0,0,1,15,1.09h6.73l-1.41,16h-1a11.37,11.37,0,0,0-4.34-9.06q-4.23-3.42-11.18-3.42-8.46,0-12.26,5.1a9.58,9.58,0,0,0-1.85,5.64,7.58,7.58,0,0,0,1.85,5.16,26.16,26.16,0,0,0,5.86,4.61l20.29,13.24a31.63,31.63,0,0,1,9.66,9.45,24,24,0,0,1,4.13,13.13,26.5,26.5,0,0,1-1.79,9.17,25.35,25.35,0,0,1-5.86,9,30.75,30.75,0,0,1-10.48,6.73,37.19,37.19,0,0,1-14.16,2.61,35.19,35.19,0,0,1-14.06-2.72,24.15,24.15,0,0,1-14.76-17,22.41,22.41,0,0,1-.65-5.42q0-9.12,6.41-17.26Z" transform="translate(-280.62 -272)"/><path d="M411.51,992q-3.69,8.46-13.67,11.72a17.36,17.36,0,0,1-5.43,1,24.4,24.4,0,0,1-13.78-4v-1.08q8.13.21,13.13-5.32,4.44-4.77,4.45-12.48,0-11.84-8.25-15.31a14.87,14.87,0,0,0-5.75-1.08h-7.27v63.49a6.48,6.48,0,0,0,2.06,4.83,6.75,6.75,0,0,0,4.88,2h1.41v1.08h-33v-1.08h1.41a6.59,6.59,0,0,0,4.83-2,7,7,0,0,0,2.12-4.83V968.18a6.71,6.71,0,0,0-3.69-5.43,6.57,6.57,0,0,0-3.26-.86H350.3V960.8h36.25q19.63,0,25.18,12.48a24.62,24.62,0,0,1-.22,18.67Z" transform="translate(-280.62 -272)"/><path d="M422.26,1035.69a6.59,6.59,0,0,0,4.83-2,7,7,0,0,0,2.11-4.83V968.62a6.8,6.8,0,0,0-2.11-4.78,6.69,6.69,0,0,0-4.83-2h-1.41V960.8h33l-.11,1.09h-1.3a6.89,6.89,0,0,0-4.89,2,6.33,6.33,0,0,0-2.06,4.78v60.23a6.52,6.52,0,0,0,2.06,4.83,6.79,6.79,0,0,0,4.89,2h1.3l.11,1.08h-33v-1.08Z" transform="translate(-280.62 -272)"/><path d="M464.15,1035.69a6.59,6.59,0,0,0,4.83-2,7,7,0,0,0,2.11-4.83V968.62a6.55,6.55,0,0,0-3.58-5.87,6.72,6.72,0,0,0-3.36-.86h-1.41V960.8h33l-.11,1.09h-1.3a6.61,6.61,0,0,0-6,3.36,6.12,6.12,0,0,0-1,3.37v60.23a6.49,6.49,0,0,0,2.07,4.83,6.75,6.75,0,0,0,4.88,2h1.3l.11,1.08h-33v-1.08Zm78.36,1.08h-8.9q-16.5,0-23.34-9-19.42-26.38-19.42-26.81l25.72-34.08a3,3,0,0,0,.54-3.47,3.14,3.14,0,0,0-3-1.63H513v-1h24.85v1h-.43A15,15,0,0,0,525.58,967l-21.17,25.07,27,36.9q5,6.51,11.07,6.73Z" transform="translate(-280.62 -272)"/><path d="M546.2,1035.69a6.59,6.59,0,0,0,4.83-2,7,7,0,0,0,2.12-4.83V968.4a6.83,6.83,0,0,0-3.59-5.65,7.12,7.12,0,0,0-3.36-.86h-1.41V960.8h41.57a46.91,46.91,0,0,0,7.38-.65,31.13,31.13,0,0,0,5.64-1.3v19h-1.09v-1.3a10.4,10.4,0,0,0-10.63-11.07H569.42v31.58h14.33a9.19,9.19,0,0,0,6.62-2.77,9,9,0,0,0,2.61-6.56v-1h1.08v25.07H593v-.87a8.73,8.73,0,0,0-4.34-8,10.75,10.75,0,0,0-4.78-1.3H569.42v30.5h14.22a19.85,19.85,0,0,0,13.3-4.56q5.37-4.56,8-12.92H606l-5,22.14H544.79v-1.08Z" transform="translate(-280.62 -272)"/><path d="M614.14,1026.68a25.25,25.25,0,0,1,3.36-13.35h1a14.52,14.52,0,0,0-.11,1.74,18.26,18.26,0,0,0,5.38,13.08q5.37,5.58,14.7,5.58,7.27,0,11.34-3.47a11,11,0,0,0,4.07-8.79q0-6.4-8.68-11.18L626.3,997.81a20.13,20.13,0,0,1-8.09-7.87,19.81,19.81,0,0,1-2.44-9.39q0-10.2,6.46-15.73t16.55-5.54a122.78,122.78,0,0,1,14.76,1.09h6.84l-1.42,16h-1.08a11.14,11.14,0,0,0-4.18-9.06q-4.19-3.42-11.12-3.42-8.48,0-12.27,5.21a8.91,8.91,0,0,0-1.95,5.64q0,5.22,7.6,9.66l20.73,13.46q9.76,5.64,9.76,16.61,0,11.61-7.87,17.74t-20.89,6.13a49,49,0,0,1-13.62-1.79q-6.24-1.79-9.17-4.83A14.39,14.39,0,0,1,614.14,1026.68Z" transform="translate(-280.62 -272)"/><path d="M786.27,994.34q.33,3.25.33,8.19a46.59,46.59,0,0,1-2,12.05,29.34,29.34,0,0,1-7,12.53q-10.43,11.19-28.65,11.18-22.14,0-35-10.9t-12.81-28.55q0-17.64,13-28.6t34.24-11a71.56,71.56,0,0,1,15.52,1.63,48.51,48.51,0,0,1,12.27,4.23l.22,18.67h-.87a26.85,26.85,0,0,0-6.19-11.61q-7.82-8.36-21.05-8.36T727,973.28q-8.09,9.45-8.09,25t8.41,25.34q8.41,9.77,23.18,10.09,15.94,0,25.39-10.2t9.44-27.67v-1.52Z" transform="translate(-280.62 -272)"/><path d="M867.67,1035.69h1v1.08H834v-1.08h1a4.19,4.19,0,0,0,3.53-1.47,4.58,4.58,0,0,0,1.14-2.76,6.62,6.62,0,0,0-.55-2.61l-5.31-13.35h-25.4l-5.64,13.35a7.28,7.28,0,0,0-.55,2.66,4.53,4.53,0,0,0,1.14,2.71,4.32,4.32,0,0,0,3.64,1.47h.87v1.08H784.64v-1.08h1a9.55,9.55,0,0,0,5-1.52,11.58,11.58,0,0,0,4.13-4.56l25.07-56.76q5.1-10.76,5.42-14.22h1l32.23,70.76a11.74,11.74,0,0,0,4.13,4.72A9.44,9.44,0,0,0,867.67,1035.69Zm-57.41-24.75H832l-10.53-26.7Z" transform="translate(-280.62 -272)"/><path d="M899.79,965.58h-5v63.27a6.67,6.67,0,0,0,3.47,6,7.3,7.3,0,0,0,3.48.87h1.41v1.08h-33v-1.08h1.42a6.58,6.58,0,0,0,6-3.37,7.51,7.51,0,0,0,1-3.36V968.72a7,7,0,0,0-2.11-4.83,6.62,6.62,0,0,0-4.83-2h-1.42V960.8h37.23q10.53,0,17.8,4.56a16.35,16.35,0,0,1,5.86,6.35,19.25,19.25,0,0,1,2.17,9.22,24.73,24.73,0,0,1-1.79,9.5,18.52,18.52,0,0,1-6,7.6,19.4,19.4,0,0,1-10,3.9q6.3,2.07,11.07,9.56,11.73,18.77,17.37,22.35a13.88,13.88,0,0,0,7,1.85v1.08H940.28q-9.22,0-15.41-2.55a21.55,21.55,0,0,1-10.1-8.73,106.16,106.16,0,0,1-5-9.5q-3-6.35-4-9.06-2.93-6.51-7.38-7.27v-1.09h3.37a13.65,13.65,0,0,0,8.63-2.93q3.74-2.92,5-9.55a20.42,20.42,0,0,0,.44-3.58q0-8.89-3.58-12.86a12.22,12.22,0,0,0-9.23-4.07Z" transform="translate(-280.62 -272)"/><path d="M1025,1035.69h1v1.08H991.4v-1.08h1a4.19,4.19,0,0,0,3.53-1.47,4.58,4.58,0,0,0,1.14-2.76,6.78,6.78,0,0,0-.54-2.61l-5.32-13.35h-25.4l-5.64,13.35a7.47,7.47,0,0,0-.54,2.66,4.53,4.53,0,0,0,1.14,2.71,4.29,4.29,0,0,0,3.63,1.47h.87v1.08H942v-1.08h1a9.53,9.53,0,0,0,5-1.52,11.51,11.51,0,0,0,4.13-4.56l25.07-56.76q5.1-10.76,5.42-14.22h1l32.24,70.76a11.65,11.65,0,0,0,4.12,4.72A9.44,9.44,0,0,0,1025,1035.69Zm-57.41-24.75h21.7l-10.52-26.7Z" transform="translate(-280.62 -272)"/><path d="M1092.11,961.89h-1a9.49,9.49,0,0,0-5,1.52A11.6,11.6,0,0,0,1082,968l-25.72,56.77q-5,10.74-5.32,14.21h-1l-32.88-70.87a12,12,0,0,0-4.13-4.61,9.42,9.42,0,0,0-5.1-1.57H1007V960.8h34.52v1.09h-.87a4.19,4.19,0,0,0-3.53,1.46,4.61,4.61,0,0,0-1.14,2.77,8.11,8.11,0,0,0,.44,2.6l18.45,44.83,19.1-44.83a7.42,7.42,0,0,0,.54-2.66,4.55,4.55,0,0,0-1.14-2.71,4.17,4.17,0,0,0-3.53-1.46h-1V960.8h23.22Z" transform="translate(-280.62 -272)"/><path d="M1156.58,1035.69h1v1.08h-34.62v-1.08h1a4.19,4.19,0,0,0,3.53-1.47,4.58,4.58,0,0,0,1.14-2.76,6.78,6.78,0,0,0-.54-2.61l-5.32-13.35h-25.4l-5.64,13.35a7.47,7.47,0,0,0-.54,2.66,4.53,4.53,0,0,0,1.14,2.71,4.29,4.29,0,0,0,3.63,1.47h.87v1.08h-23.23v-1.08h1a9.53,9.53,0,0,0,5-1.52,11.51,11.51,0,0,0,4.13-4.56l25.07-56.76q5.1-10.76,5.42-14.22h1l32.24,70.76a11.65,11.65,0,0,0,4.12,4.72A9.44,9.44,0,0,0,1156.58,1035.69Zm-57.41-24.75h21.7l-10.52-26.7Z" transform="translate(-280.62 -272)"/><path d="M1242.86,961.89a6.43,6.43,0,0,0-4.66,1.9,6.57,6.57,0,0,0-2.07,4.61v56a65.3,65.3,0,0,0,1,12.27l.33,1.62h-1l-54.81-52.2v43.09a6.2,6.2,0,0,0,1.95,4.61,6.46,6.46,0,0,0,4.67,1.9h2.06v1.08h-32.88v-1.08h2a6.6,6.6,0,0,0,4.78-1.9,6.33,6.33,0,0,0,2-4.72V972.74a61.08,61.08,0,0,0-1-11.94l-.21-1.63h1l54.81,52.21V968.51a6.69,6.69,0,0,0-2.06-4.72,6.45,6.45,0,0,0-4.67-1.9h-2V960.8h32.88v1.09Z" transform="translate(-280.62 -272)"/><path d="M1209.64,901.25a56,56,0,0,1-1.63-12.42l3.45,1.08c.85,0,18-1.9,18.74-2.33a1.23,1.23,0,0,0,.69-.81,1.66,1.66,0,0,0-.44-1.41c-.93-1.05-5.65-1.87-9.5-2.81a11.68,11.68,0,0,0,2.27-1.8l-5.52-.83,10.31-3.18c-3.14-.92-6.4-.77-9.61-.88l-5-.9a24.91,24.91,0,0,0,6.47-3.16l-1.77-.6c1.67-.59,3.24-1.18,4.41-1.72-2.33-.92-6.49-4.26-7.93-4.78a1.11,1.11,0,0,1-.82-1,1.45,1.45,0,0,1,.4-.82c2.7-3.14-.76-3.38,2.44-5.24l-3.12-1.7,1.66-1.39c.52-.44,1.09-1,.9-1.65-.13-.46-.63-.74-1.08-1-.69-.33-1.39-.63-2.1-.91l3.22-1.56c.44-.21,1-.75.79-1.36a.94.94,0,0,0-.42-.51l-5.49-4.07c1.83-.91.85-1.62,2.76-2.08-1.68-1.73-1-2.19-2.73-3.74-3.2-2.83-4.5-8.56-5.44-13.84-.94,5.28-2.24,11-5.44,13.84-1.76,1.55-1.79,2.06-3.47,3.78,1.91.47,1.67,1.13,3.5,2l-5.49,4.07a1,1,0,0,0-.42.51c-.2.61.35,1.15.79,1.36l3.63,1.76s-.07.14-.14.16c-1.94.62-3.17,1.54,0,1.94a.69.69,0,0,1,.5.53c0,.23-.12.45-.22.67a1.16,1.16,0,0,0,0,.78l-4.26,2.32c3.21,1.86,1.63,2.17,4.32,5.31a1.42,1.42,0,0,1,.4.82,1.07,1.07,0,0,1-.81,1,28.25,28.25,0,0,0-4,2.57l-1.74-.59c1.67-.6,3.24-1.18,4.41-1.73-2.33-.92-6.49-4.25-7.93-4.77a1.1,1.1,0,0,1-.82-1,1.42,1.42,0,0,1,.4-.82c2.7-3.14-.76-3.39,2.44-5.24l-3.12-1.7,1.66-1.4c.52-.43,1.09-1,.9-1.65-.13-.46-.63-.73-1.08-.94-.69-.33-1.39-.64-2.1-.91l3.22-1.56c.44-.22,1-.75.79-1.37a1,1,0,0,0-.42-.5l-5.49-4.07c1.83-.92.85-1.62,2.76-2.08-1.68-1.73-1-2.2-2.73-3.75-3.2-2.82-4.5-8.55-5.44-13.84-.94,5.29-2.24,11-5.44,13.84-1.76,1.55-1.79,2.06-3.47,3.79,1.91.46,1.67,1.12,3.5,2l-5.49,4.07a1,1,0,0,0-.42.5c-.2.62.35,1.15.79,1.37l3.63,1.76s-.07.13-.14.16c-2,.62-3.18,1.54,0,1.94a.68.68,0,0,1,.5.53c0,.23-.12.44-.22.66a1.13,1.13,0,0,0,0,.79l-4.26,2.32c3.2,1.85,1.62,2.16,4.32,5.3a1.45,1.45,0,0,1,.4.82,1.11,1.11,0,0,1-.82,1,36,36,0,0,0-4.5,2.93c-1.29-.29-2.66-.59-3.93-.9a11.45,11.45,0,0,0,2.28-1.8l-5.52-.83,10.3-3.18c-3.13-.92-6.39-.76-9.6-.88l-5-.9a24.91,24.91,0,0,0,6.47-3.16l-1.77-.6c1.67-.59,3.24-1.17,4.41-1.72-2.33-.92-6.49-4.26-7.93-4.78a1.11,1.11,0,0,1-.82-1,1.45,1.45,0,0,1,.4-.82c2.7-3.14-.76-3.38,2.44-5.24l-3.12-1.7,1.66-1.39c.52-.44,1.09-1,.9-1.65-.13-.46-.63-.73-1.08-.95-.69-.32-1.39-.63-2.1-.91l3.22-1.56c.44-.21,1-.75.79-1.36a1,1,0,0,0-.42-.51l-5.49-4.07c1.83-.91.85-1.61,2.76-2.08-1.68-1.73-1-2.19-2.73-3.74-3.2-2.83-4.5-8.56-5.44-13.84-.94,5.28-2.24,11-5.44,13.84-1.76,1.55-1.79,2.06-3.47,3.79,1.91.46,1.67,1.12,3.5,2l-5.49,4.07a1,1,0,0,0-.42.51c-.2.61.35,1.15.79,1.36l3.63,1.76s-.07.14-.14.16c-2,.62-3.18,1.55,0,1.94a.69.69,0,0,1,.5.53c0,.24-.12.45-.22.67a1.1,1.1,0,0,0,0,.78l-4.26,2.32c3.2,1.86,1.62,2.17,4.32,5.31a1.42,1.42,0,0,1,.4.82,1.1,1.1,0,0,1-.82,1c-1.44.52-5.63,4.05-8,5,1.09.51,2.3,1,3.55,1.53l-.37.12a21.81,21.81,0,0,0,5.86,2.69c-.19.42-.73.57-1.21.68l-4.18.9.32.11c-3.77.3-7.65-.12-11.35,1l8.35,2.58q-2.1,1.06-4.1,2.31a8.88,8.88,0,0,0,2.28.52,9.08,9.08,0,0,1,1.4.18c-3.37.87-7.74,1.63-9.62,2.52-49.68-22.74-99.32-48.06-134.29-71.69-16.9-11.42-33.79-24-54.06-28.71-4.46-1-9.27-1.65-13.6-.2-3.54,1.19-6.4,3.64-9.15,6l-10,8.72c-46.82-20.64-104.66-49.1-142.28-76-11.29-8.08-24.92-17-38.51-13-6.6,1.92-11.78,6.63-16.68,11.18Q675,729.94,643.64,759c-3.57,3.31-7.3,6.72-12,8.37s-10,1.34-15.05,1.59a64.66,64.66,0,0,0-28.17,8,93,93,0,0,0-9.16,6c-1.34-.15-2.7-.13-4.05-.17l-3.11-.56a15.4,15.4,0,0,0,4-1.95L575,780a29.26,29.26,0,0,0,2.73-1.06c-1.44-.57-4-2.63-4.91-3a.66.66,0,0,1-.5-.64.85.85,0,0,1,.25-.5c1.66-1.95-.48-2.1,1.51-3.24l-1.93-1.06,1-.86c.32-.27.68-.63.56-1s-.39-.45-.67-.58-.86-.39-1.29-.57l2-1a.76.76,0,0,0,.49-.84.59.59,0,0,0-.25-.32l-3.4-2.51c1.13-.57.52-1,1.7-1.29-1-1.07-.6-1.36-1.68-2.31-2-1.75-2.78-5.29-3.37-8.56-.58,3.27-1.38,6.81-3.36,8.56a26.78,26.78,0,0,0-2.14,2.34c1.17.28,1,.69,2.16,1.26l-3.4,2.51a.65.65,0,0,0-.26.32c-.12.38.22.71.49.84l2.25,1.09s-.05.08-.09.1c-1.2.38-2,.95,0,1.2a.42.42,0,0,1,.31.33c0,.14-.08.27-.13.41a.72.72,0,0,0,0,.48l-2.63,1.44c2,1.14,1,1.33,2.67,3.28a.85.85,0,0,1,.25.5.67.67,0,0,1-.51.64c-.89.33-3.48,2.51-4.92,3.08.67.31,1.42.63,2.2,1l-.23.07a13.08,13.08,0,0,0,3.62,1.66,1,1,0,0,1-.75.42l-2.58.56.2.07c-2.34.18-4.73-.07-7,.6l5.17,1.6q-1.22.6-2.37,1.32c-.94,0-1.88,0-2.82-.08l-3.12-.56a15,15,0,0,0,4-1.95l-1.09-.37c1-.37,2-.73,2.72-1.06-1.44-.57-4-2.64-4.9-3a.66.66,0,0,1-.5-.64.9.9,0,0,1,.24-.51c1.67-1.94-.47-2.09,1.51-3.24l-1.93-1,1-.86c.32-.27.67-.63.56-1s-.39-.45-.67-.59-.86-.39-1.3-.56l2-1c.27-.14.61-.47.49-.85a.67.67,0,0,0-.26-.31l-3.4-2.52c1.13-.56.53-1,1.71-1.28-1-1.07-.6-1.36-1.69-2.32-2-1.74-2.78-5.29-3.36-8.56-.58,3.27-1.38,6.82-3.37,8.56-1.08,1-1.1,1.28-2.14,2.34,1.18.29,1,.7,2.16,1.26l-3.39,2.52a.62.62,0,0,0-.26.31c-.12.38.22.71.49.85L541,771s0,.09-.08.1c-1.21.39-2,1,0,1.2a.42.42,0,0,1,.3.33c0,.14-.07.28-.13.41a.69.69,0,0,0,0,.49l-2.63,1.43c2,1.15,1,1.34,2.67,3.28a.9.9,0,0,1,.24.51.66.66,0,0,1-.5.64c-.89.32-3.48,2.51-4.92,3.08.67.31,1.42.63,2.19.94l-.23.08a13.58,13.58,0,0,0,3.63,1.66c-.12.26-.46.35-.76.42l-2.58.56.2.06c-2.33.19-4.73-.07-7,.6l5.17,1.6c-.87.44-1.72.91-2.54,1.43a5.25,5.25,0,0,0,1.41.32,5.94,5.94,0,0,1,.86.11c-2.45.64-5.79,1.18-6.41,1.87a1.05,1.05,0,0,0-.28.88.81.81,0,0,0,.43.5c.49.27,13.2.79,13.72.77,0,0-.07,2.75-.3,5.74a22.83,22.83,0,0,1-13.7-4c-4-2.83-7.59-7.4-12.56-6.83-2.7.32-4.87,2.16-6.8,3.94-11.66,10.69-22.21,22.41-34.14,32.83-37.63,32.87-135.77,61.9-170.46,96.72,21.95-5.72,92.09-32.17,106.75-40.39,32.08-18,60.59-40.72,92.68-58.71,1.92,3.55,3,23,.61,26.27Q486.55,876,467.26,902.09l17.18-2.39a41.3,41.3,0,0,1-2.82,19c51.47-27.56,69.22-103.85,121.94-129.3,12.65-6.11,30.27-8.5,42.31-15.61,29.84-17.64,47.51-47.32,77.49-64.76C719.06,741.89,681.45,777,680,810a102,102,0,0,0,36.87-21.84c8.16,11.58,3,27.31-5.19,38.88s-19.19,21.81-23.49,35.06l34.77-8.29a6.24,6.24,0,0,1,4-.05c3.1,1.45,1.12,5.86-1.24,8.23-25.68,25.76-60.36,45.75-74.35,78.4,94.32-22.84,171.1-79.93,245.73-138.3,9.49-7.43,22.79-22.75,31.58-14.61,5.33,4.92,15.15,59.26,17.39,65.93,9.42,28.09,42.92,45.6,53.41,52.09,15.42,9.55-38.32-61.37-35.19-69.64.53-1.42.56-13.92,2.12-14.33,3.38-.87,6.6,1.59,9.19,3.79,30.47,26,97.32,86.64,138.55,89l-.78-1.26c-1.33-2.13-2.7-4.44-2.5-6.89.34-4.19-25.42-28.82-20.91-28.72s61.63,21.86,65.62,23.82c20,9.83,52.54,12.19,83.92,11.94C1230.09,909.52,1220.1,905.52,1209.64,901.25ZM577,784.66l-1.15.85-1.07-.16Zm-29.56,15a28.75,28.75,0,0,1-.56-5.46l2.14.67c.52,0,11.09-1.17,11.58-1.44a.78.78,0,0,0,.43-.5,1,1,0,0,0-.27-.88c-.58-.64-3.49-1.15-5.87-1.73,3.92.25,10.44.51,10.81.49,0,0,0,.74-.07,1.85-1.41.89-2.84,1.73-4.32,2.51A41.83,41.83,0,0,1,547.41,799.7Zm635.33,88.13c5.27.44,19.57,1,20.27,1,0,0-.12,4.58-.51,9.49q-9.54-3.95-19.5-8.15C1182.9,889.38,1182.8,888.59,1182.74,887.83Zm9.55-12.37,5.84-1.81c.44.15.87.3,1.32.43-.2.42-.74.57-1.22.67l-4.18.91.33.11h0Zm1.29-7.58a18.85,18.85,0,0,1-3.18,1.86c1.09.51,2.3,1,3.55,1.53l-.37.12,0,0-.63,0-5-.91A24.25,24.25,0,0,0,1193.58,867.88Zm-11,16.49h0Zm-5,0s0,1.38-.14,3.45q-4.41-1.87-8.89-3.81C1173.14,884.22,1177.23,884.38,1177.6,884.37Zm-26-15.76,3.45,1.08c.61,0,9.66-1,15-1.69a22,22,0,0,0,4,1.61c-.19.42-.73.58-1.22.68l-4.17.9.32.11c-3.77.3-7.65-.11-11.35,1l8.35,2.59q-2.1,1-4.1,2.3a8.5,8.5,0,0,0,2.28.53,9.08,9.08,0,0,1,1.4.17c-2.3.6-5.08,1.14-7.2,1.71l-5.94-2.6A43.9,43.9,0,0,1,1151.59,868.61Zm-5,0s-.07,2.45-.25,5.68q-7-3.1-14-6.3C1138.46,868.33,1146.08,868.63,1146.59,868.61Z" transform="translate(-280.62 -272)"/><polygon points="427.52 45.83 427.52 0 436.56 0 455.41 30.73 455.41 0 464.06 0 464.06 45.83 454.76 45.83 436.17 15.75 436.17 45.83 427.52 45.83"/><polygon points="734.25 347.59 734.25 301.76 768.34 301.76 768.34 309.5 743.68 309.5 743.68 319.7 766.53 319.7 766.53 327.45 743.68 327.45 743.68 339.84 769.24 339.84 769.24 347.59 734.25 347.59"/><polygon points="112.22 346.91 101.37 301.08 110.93 301.08 117.77 332.58 126.16 301.08 137.26 301.08 145.27 333.1 152.24 301.08 161.54 301.08 150.56 346.91 140.62 346.91 131.58 312.57 122.42 346.91 112.22 346.91"/><path d="M659.59,644.89a22.09,22.09,0,0,0-1,6.21,71.63,71.63,0,0,1-7,26.06c-1.18,2.43-2.32,4.87-3.38,7.35a47.59,47.59,0,0,0-3.31,10.91c-.91,5.44-10.59,63.8-10.35,69.24,6.88-1.54,23.89-22.09,30.28-18.9.8-.12,1.61-31.42,2.42-31.47a13.84,13.84,0,0,1-4.11-9.56,83.76,83.76,0,0,1,1.14-15.18C666.57,674.48,663.68,660,659.59,644.89Z" transform="translate(-280.62 -272)"/><path d="M623.51,549.47a2.45,2.45,0,0,0,3-.92,11.08,11.08,0,0,0,2-4.24c.62-4.22,1.21-8.48.62-12.78a13.54,13.54,0,0,1,.11-2.39l9.78,2.27c.41,1.14.71,2.21,1.17,3.2,2.6,5.55,6.57,10.12,10.9,14.31a6.73,6.73,0,0,1,2.15,5.85c-.31,7-.77,14-.29,20.93.94,13.64,6,25.56,16.45,34.81,2.14,1.9,4.22,3.86,6.31,5.81a21.35,21.35,0,0,1,5.84,9.12c.17.51.7,1.13-.48,1.61-4.58-3.68-9.34-7.36-13.94-11.23a33.64,33.64,0,0,1-7.73-9.6c-.35-.63-.78-1.21-1.3-2-.3.64-.55.89-.53,1.13.54,6.49.73,13,1.76,19.43.92,5.77,2.69,11.42,4.2,17.09,3.29,12.3,5.79,24.72,5.91,37.53,0,2.83.65,5.65.89,8.49a17.61,17.61,0,0,1-.13,3.77c-.57,4.09-1.24,8.17-1.82,12.25a23.2,23.2,0,0,0,.2,9.46,2.69,2.69,0,0,1,.05.88c1.15,0,2.29,17.66,3.43,17.77,2.7-1.06,12.17-14.38,14.88-15.41,4.52-1.73,2.21-8.43,6.65-9.19a104,104,0,0,1,2.92-16.22c.06-.26.39-.44.82-.91.06,1.61.1,3,.16,4.36s-.48,2.65.57,4.24a19,19,0,0,0,2.23-6.6,27.41,27.41,0,0,0-1.33-15c-1.74-4.6-3.55-9.18-5.38-13.74a55.49,55.49,0,0,1-3.61-25.24,9.79,9.79,0,0,1,.71-2.07,10.68,10.68,0,0,1,1.59.78,36,36,0,0,0,15.66,6.55c2,.37,4.08.67,6.08,1.17a6,6,0,0,1,2.92,1.39,12.59,12.59,0,0,1,3.39,5.54c-3.71,1.89-8,.26-11.6,2.56a7.27,7.27,0,0,0,2.29,5.18c1.47,1.45,3.09,2.72,4.65,4.07,2.67,2.32,6.32,1.68,9.63,2.93-1.25,4.94-2.67,9.65-2.52,14.6.17,5.59,1.76,11.72,3.93,14.68.13-.85.25-1.4.3-1.95.32-4.12.54-8.24,1-12.35a36.3,36.3,0,0,1,5.87-16.92,30.64,30.64,0,0,0,3.06-5.36,34.26,34.26,0,0,1,12.23-14.87,43.71,43.71,0,0,0,10.12-9.28c-.59.16-1.19.29-1.78.47-5.77,1.76-11.55,3.46-17.29,5.31a40.15,40.15,0,0,1-14.54,2c-1.89-.1-3.86-.16-5.33-1.65-1.16-1.2-2.53-1.07-4-.77a18.27,18.27,0,0,1-8.51,0c-6.13-1.61-11.66-4.41-15.39-9.71-2.63-3.75-4.82-7.83-7.13-11.8-1.75-3-1-5.91.9-8.46a16.75,16.75,0,0,1,4.2-3.8,42.57,42.57,0,0,1,6.36-3.21c6.75-2.89,7.24-2.53,9.91-10.94.19-.6.32-1.23.52-1.83,1.86-5.74,3.62-11.51,5.63-17.19,3.43-9.7,8.1-18.65,16.13-25.44a8.84,8.84,0,0,0,3.18-6.67A35,35,0,0,0,732,536,52.8,52.8,0,0,0,727.69,521c-3.08-7.22-8.35-11.82-16.07-13.54a14.16,14.16,0,0,1-2.12-.84l.16-.6h8.54c.63,0,1.27,0,1.31-1A26.85,26.85,0,0,0,708,500a31.71,31.71,0,0,0-14.15.78,9.67,9.67,0,0,1-8.9-1.8c-1.15-.84-2.21-1.8-3.3-2.72-2.06-1.75-4.06-3.57-6.18-5.25a18.83,18.83,0,0,0-12.83-4.19,45.91,45.91,0,0,0-11.7,2,15.38,15.38,0,0,0-7.22,4.42,99.8,99.8,0,0,0-7.21,8.85c-3,4.31-5.5,8.91-8.33,13.32a33.23,33.23,0,0,0-5.54,17c-.16,4.92-.27,9.84-.39,14.76A2.19,2.19,0,0,0,623.51,549.47Zm86-9.61c1.61,1.76,4,7.35,4.54,10.81-2.56-1.29-3.33-3.81-4.76-5.79s-3.06-3.93-4.82-6.16A4.19,4.19,0,0,1,709.51,539.86Zm-13.7,2.48c-.74,2-3.22,2-3.94,4.21,3.61,4.22,8.07,6.46,13.94,5.15.08,1.59-1.12,1.6-1.83,1.83a10,10,0,0,1-5.57.51,14.42,14.42,0,0,1-7.11-4.42c-1-1.1-2-2.25-3.06-3.38C690.85,543,691.52,542.61,695.81,542.34Zm-53.74-33.18a9.18,9.18,0,0,1,3.17-5.16,12.83,12.83,0,0,1,15.42-1.06c2.39,1.51,4.8,3,7.25,4.53a43.7,43.7,0,0,1-8.31,13.13c-1.65,1.71-3.42,3.3-5.13,4.95l-9.38,9.06a6.43,6.43,0,0,1-3.23-3.92c.83-.53,1.59-1,2.36-1.49,5.82-3.5,10.32-8.37,14.18-13.87a23.86,23.86,0,0,0,2.53-5.08,3.66,3.66,0,0,0-1.18-4.3,8.16,8.16,0,0,0-2.77-1.78,12,12,0,0,0-10.45,1.62c-3.23,2.23-2.72,5.24.26,7.37,2.14,1.52,4.72,1.75,7.64,1.78a19.58,19.58,0,0,1-.87,2.19c-2.21,4-5.8,6.59-9.68,8.81h0c-.68-2.75-1.44-5.5-2-8.28A20,20,0,0,1,642.07,509.16Zm-11.25,14.95a4.89,4.89,0,0,1,4.74-3.89c2.71-.15,5,.54,6.26,3.24a12.81,12.81,0,0,0,2,2.48c-1.55-.4-2.09,1.11-3.09,1.7-3.17,1.86-6.08,1-8.92-.63A2.4,2.4,0,0,1,630.82,524.11Z" transform="translate(-280.62 -272)"/><path d="M772.35,587.42a5,5,0,0,1,1.55,3.35c1.51,10.68,4.45,21.13,5.12,32a3.53,3.53,0,0,0,.32.89c1.74,2.13,4.79,1.45,6.84,3.14-.15,2.12-1.61,3.38-3,4.64a6.47,6.47,0,0,1-4.39,1.57c-.79,0-1.59.06-2.38,0-2.33-.16-4.66-.36-6.87-.53-.61-1.19.22-1.64.67-2.22,1.17-1.5,2.46-2.91,3.5-4.49a5.36,5.36,0,0,0-.05-6.26,37.77,37.77,0,0,0-10.35-10.39,7,7,0,0,0-4.52-1.18c-3.31.21-5.84,1.79-8.4,4.85,5-1.27,9.33-2.47,13.54,0,3.47,2,6.4,4.59,8.1,8.52-1.33,1.35-3.19.43-4.23,1.13-1.64,2.22-3,4.28-4.6,6.2a11.12,11.12,0,0,1-6,3.71,48.46,48.46,0,0,1-17.75,1.32c-.62-1.24.23-1.64.8-2.09a42.47,42.47,0,0,0,7.08-7.24c-1.26.19-2.06.09-2.58.42a54.07,54.07,0,0,0-5,3.57A23.82,23.82,0,0,1,725.39,634a15.6,15.6,0,0,0-7.16,2.31,17.12,17.12,0,0,1-20.49-3.13,14.35,14.35,0,0,1-2.43-4,2,2,0,0,1,2.09-2.87,47.29,47.29,0,0,1,5.13,1c4.8,1.07,9.59,2.18,14.38,3.27.62.14,1.25.22,1.88.33,8.39,1.37,15.35-1.12,20.78-7.72A20.09,20.09,0,0,0,743,618c-1,.67-2,1.31-2.93,2-1.89,1.44-3.64,3.11-5.65,4.35a38.34,38.34,0,0,1-6.42,3c-3,1.13-5.42-.09-8.31-2.11a27.39,27.39,0,0,1,2.6-1,27.48,27.48,0,0,0,15.27-9.93A58.91,58.91,0,0,0,745.66,601c.73-1.64.54-3.08-1.14-4.1a10.74,10.74,0,0,1-1.22-1.11c1.3-2.66.33-5.12-.92-7.6-1.14-2.26-2.17-4.58-3.14-6.93a17,17,0,0,1-1-8.89,9.83,9.83,0,0,1,7.15-8.64c.6-.19,1.21-.35,1.83-.49a50.68,50.68,0,0,1,17.06-.49c7.57.94,11.07,5.18,11.36,12.83.16,4.09-1.31,7.76-2.62,11.48-.07.21-.53.27-.8.4.12.09.27.16.31.27s-.11.21-.18.31Zm-8.61-13.49c1.29.17,2-.69,2.77-1.51a3.61,3.61,0,0,1,4.26-1.1,13.3,13.3,0,0,0,1.94.29,6.81,6.81,0,0,0-4.34-4.54,18.55,18.55,0,0,0-14.24,1.09c-.72.34-1.16,1.29-1.85,2.1a26.59,26.59,0,0,1,3.87,3.1,20.52,20.52,0,0,1,2.11,4.06c.18-2.34.32-4.18.46-6,2.29-.86,4.28-1.6,6.77-.43l-1.76,3c.16,1.51-.94,3.06.27,4.9,0-1,0-1.59,0-2.2C763.94,575.74,763.83,574.83,763.74,573.93ZM755.17,583h-3.61c-1,0-2-1-3.16-.07C750.46,584.57,752.49,584.59,755.17,583Z" transform="translate(-280.62 -272)"/><path d="M769.6,498.31l-7.84-1.49c3.06-7.37,9.76-11.28,17-10.08,1.25.21,2.5.44,3.74.68,10.72,2.05,18.89,7.95,25,16.8A102.27,102.27,0,0,1,823,538.72a20.3,20.3,0,0,1,.52,3.29,1.85,1.85,0,0,1-2.53,1.91,4.1,4.1,0,0,1-2.78-2.39c-.94-2-1.81-4-2.72-6.07s-1.61-3.8-2.6-5.61-2.21-2.41-4.36-1.91a10.21,10.21,0,0,0-3.48,1.41c-2.6,1.8-5.06,3.8-7.59,5.71-.73.55-1.48,1.07-2.53,1.84-4.38-13-10.64-24.41-21.7-32.45a14.47,14.47,0,0,1,2.09-6.47,3.72,3.72,0,0,1,4.43-2c2.89.82,5.77,1.7,8.6,2.71s5.54,2.19,8.48,3.36c-.05-.53,0-.87-.1-1a43.22,43.22,0,0,0-13-7.78,13.32,13.32,0,0,0-1.34-.47c-5.58-1.51-7.9-.7-11.48,4C770.57,497.32,770.11,497.75,769.6,498.31Zm29.32,30.28c.15-.39.44-.77.34-1-2.33-4.17-1.5-8.13.46-12.18a8.19,8.19,0,0,0,.3-4.17,2.77,2.77,0,0,0-3.18-2.19c-4.6.36-8.58,9.37-6.4,12.52a6.53,6.53,0,0,0,.82,1.16c2.11,1.91,4.22,3.81,6.39,5.66C797.92,528.67,798.51,528.55,798.92,528.59Zm3.05-1.07a12.59,12.59,0,0,0,7-3.31,1.65,1.65,0,0,0,.42-1.29,8.45,8.45,0,0,0-.79-2.69c-1.05-2-3-2.24-4.79-.87C801,521.49,800.45,524.15,802,527.52Z" transform="translate(-280.62 -272)"/><path d="M782.33,662.21c9.21,16.38,15.68,61,20.33,79.11a29.61,29.61,0,0,1,5.57.42l2-1.58c5.21,46.79,11,16.46-.46-31-.67-2.77-1.33-5.55-2.25-8.24a159.3,159.3,0,0,0-17.13-35.42c-5-7.72-9.94-15.45-13.8-23.83-.08-.18-.51-.2-.9-.35a13.15,13.15,0,0,0,.51,6.53A66.5,66.5,0,0,0,782.33,662.21Z" transform="translate(-280.62 -272)"/><path d="M762.35,703.22c-3.16-4.24-4.45-9.07-4.87-14.13a51.42,51.42,0,0,1,1.06-15.15,86.4,86.4,0,0,1,6.89-20.72c1.05-2.1,2.37-4.07,3.52-6,1.47.32,1.17,1.26,1.06,1.93-.78,4.69-1.61,9.37-2.45,14.06-1.53,8.59-3.08,17.17-4.59,25.76C762.14,693.64,762.41,698.39,762.35,703.22Z" transform="translate(-280.62 -272)"/><path d="M777.84,538.31a10.18,10.18,0,0,1,8.15,4.2c2,2.45,1.07,8.58-3.62,9.49a9.42,9.42,0,0,1-9.09-2.82c-1.74-1.8-2.78-3.89-1.61-6.46S774.74,538.33,777.84,538.31Zm3.22,4.47a4.5,4.5,0,0,0-.85-.33c-.08,0-.22.2-.33.31a4.4,4.4,0,0,0,.82.33C780.79,543.11,780.93,542.89,781.06,542.78Z" transform="translate(-280.62 -272)"/><path d="M747.56,540.9c-.84-2.38-.19-5-1.13-7.2-1.4-.36-1,1-1.84,1.26-.8-3.92-1.28-8-2.49-11.79s-3.17-7.43-4.86-11.28c2.82,1.11,3.87,2.21,6,6.23C747.34,525.63,749.12,534.52,747.56,540.9Z" transform="translate(-280.62 -272)"/><path d="M759.61,650c-.47-2,0-4-.15-6a11.53,11.53,0,0,1,.07-2.35,4,4,0,0,1,2.5-3.22c2.34-.89,4.74-1.63,7.15-2.29.43-.12,1.14.35,1.52.75.18.19,0,.92-.2,1.25-.53.76-1.21,1.44-1.82,2.15-2.68,3.08-5.35,6.17-8,9.24C760.47,649.68,760.13,649.72,759.61,650Z" transform="translate(-280.62 -272)"/><path d="M792.23,564.25c2.13,10.13,1.28,19.77-4.21,28.62-1.18.08-1.08-.76-1-1.26a15.63,15.63,0,0,1,.47-3.27c1-4,2.38-7.87,3.18-11.89S791.71,568.32,792.23,564.25Z" transform="translate(-280.62 -272)"/><path d="M722.55,599.66l2.79-2.07c.44.34.82.48.89.71a2.26,2.26,0,0,1-1.57,3C723.61,601.63,722.9,601,722.55,599.66Z" transform="translate(-280.62 -272)"/><path d="M737.68,502.7a9,9,0,0,1,1.46-.34c.91-.05,1.82,0,2.93,0C740.12,503.1,740.12,503.14,737.68,502.7Z" transform="translate(-280.62 -272)"/><path d="M789.4,545.6a4,4,0,0,1,.93,3.95C788.85,548.27,788.83,548.27,789.4,545.6Z" transform="translate(-280.62 -272)"/><path d="M729.08,505.94l-3.22-2.05c.41-.22.72-.5.84-.44.93.5,1.83,1.06,2.72,1.64A5.12,5.12,0,0,1,729.08,505.94Z" transform="translate(-280.62 -272)"/><path d="M724.11,606.69c.54-.63.8-1.22,1.1-1.23a4.74,4.74,0,0,1,1.55.47c-.23.35-.41.92-.69,1A7.11,7.11,0,0,1,724.11,606.69Z" transform="translate(-280.62 -272)"/><path d="M715.42,606.44c-.38-.7-.74-1.05-.74-1.4,0-.79.62-1,1.26-.86.3.09.76.7.69.85A7.14,7.14,0,0,1,715.42,606.44Z" transform="translate(-280.62 -272)"/><path d="M732.4,603.07c.11.09.33.24.32.25a4.36,4.36,0,0,1-.48.65,2.46,2.46,0,0,1-.34-.23Z" transform="translate(-280.62 -272)"/><path class="cls-1" d="M495.78,596.45q0-5.19.23-10.34l-24.6,5.34c0,1.66-.06,3.33-.06,5s0,3.09.06,4.62L496,606.43C495.85,603.12,495.78,599.8,495.78,596.45Z" transform="translate(-280.62 -272)"/><path class="cls-1" d="M978.84,592.16l-24.6-5.62c.15,3.28.21,6.58.21,9.91s-.06,6.5-.2,9.71l24.59-5.53c0-1.39,0-2.79,0-4.18S978.87,593.58,978.84,592.16Z" transform="translate(-280.62 -272)"/><path class="cls-1" d="M725.12,342.68c-1.31,0-2.61,0-3.91,0l-5.57,24.58c3.14-.12,6.3-.19,9.48-.19,3.39,0,6.75.07,10.11.22l-5.58-24.59C728.14,342.7,726.64,342.68,725.12,342.68Z" transform="translate(-280.62 -272)"/><path class="cls-1" d="M723.71,863.36l1.45,6.55,1.43-6.35Z" transform="translate(-280.62 -272)"/><path class="cls-1" d="M819.85,719.59c.78.49,2.24,1.27,4.19,2.25,38.22-29.12,60.89-74.12,60.89-125.85,0-87.94-71.56-159.5-159.5-159.5S565.92,508.05,565.92,596a159.32,159.32,0,0,0,61,125.33c2.34-1.09,3.8-1.77,3.94-1.85A155.2,155.2,0,0,1,570,596.27c0-85.68,69.71-155.39,155.39-155.39s155.39,69.71,155.39,155.39A155.23,155.23,0,0,1,819.85,719.59Z" transform="translate(-280.62 -272)"/><path class="cls-1" d="M978.84,592.16l-24.6-5.62-54.31-12.42-.33-2.32a175,175,0,0,0-40.18-89.45L858,480.73l13.32-30.39L841,463.66l-1.62-1.38a175,175,0,0,0-89.47-40.18l-2.32-.33-12.33-54.44-5.58-24.59-4.22-18.63-4.22,18.61-5.57,24.58L703.3,421.77l-2.33.33a175,175,0,0,0-89.46,40.18l-1.62,1.38-30.4-13.32,13.33,30.39-1.38,1.62a175.06,175.06,0,0,0-40.19,89.45l-.32,2.35-54.92,12-24.6,5.34-22.11,4.82,22.11,4.8L496,606.43l54.93,12,.32,2.35a175.06,175.06,0,0,0,40.19,89.45l1.38,1.62-13.33,31.41s29.29-13.51,43.64-20.15A163.15,163.15,0,1,1,888.58,596c0,52.35-22.57,97.87-60.83,127.68,11.89,5.77,32.92,15.27,41.5,18.84.15-.25-11.21-30.7-11.21-30.7l1.38-1.62a175,175,0,0,0,40.18-89.45l.33-2.34,54.32-12.24,24.59-5.53,18.64-4.21Z" transform="translate(-280.62 -272)"/><path class="cls-1" d="M959.64,580.81l19,4.35c-5.75-130.88-111.11-236.33-242-242.22l3.78,16.66C858.62,367.33,953,462.35,959.64,580.81Z" transform="translate(-280.62 -272)"/><path class="cls-1" d="M710.44,359.53l3.77-16.61C583.29,348.47,477.74,453.7,471.64,584.47l18.47-4C497,461.77,591.84,366.71,710.44,359.53Z" transform="translate(-280.62 -272)"/><path class="cls-1" d="M490.37,612.15l-18.75-4.09a252.37,252.37,0,0,0,56.53,148.09,141,141,0,0,0,16.51-10.84A234.14,234.14,0,0,1,490.37,612.15Z" transform="translate(-280.62 -272)"/><path class="cls-1" d="M959.37,612a234,234,0,0,1-50.19,128.33,125.27,125.27,0,0,0,19,9.75c29.1-39.34,48.15-90.38,50.42-142.41Z" transform="translate(-280.62 -272)"/></svg>