<svg width="24" height="24" viewBox="0 0 24 24" fill="none" xmlns="http://www.w3.org/2000/svg">
<path d="M2.25592 15.632C2.28992 15.309 2.52392 15.049 2.99192 14.528L4.02292 13.375C4.27492 13.055 4.45392 12.5 4.45392 12C4.45392 11.5 4.27492 10.944 4.02392 10.625L2.99092 9.472C2.52292 8.952 2.28892 8.691 2.25492 8.368C2.22092 8.045 2.39492 7.741 2.74492 7.134L3.23892 6.277C3.61192 5.629 3.79892 5.305 4.11692 5.177C4.43392 5.047 4.79292 5.149 5.51192 5.353L6.73192 5.696C7.19092 5.802 7.67192 5.742 8.08992 5.527L8.42692 5.333C8.78612 5.10266 9.06224 4.76347 9.21492 4.365L9.54892 3.368C9.76892 2.708 9.87892 2.378 10.1399 2.188C10.4029 2 10.7499 2 11.4439 2H12.5589C13.2529 2 13.6009 2 13.8619 2.189C14.1229 2.378 14.2329 2.708 14.4519 3.368L14.7869 4.365C14.9396 4.76347 15.2157 5.10266 15.5749 5.333L15.9119 5.527C16.3299 5.742 16.8119 5.802 17.2699 5.697L18.4899 5.353C19.2089 5.149 19.5679 5.047 19.8849 5.176C20.2029 5.306 20.3899 5.629 20.7629 6.277L21.2559 7.134C21.6059 7.741 21.7809 8.044 21.7469 8.368C21.7129 8.692 21.4789 8.951 21.0109 9.472L19.9799 10.625C19.7279 10.944 19.5489 11.5 19.5489 12C19.5489 12.5 19.7279 13.056 19.9789 13.375L21.0109 14.528C21.4789 15.048 21.7129 15.309 21.7469 15.632C21.7809 15.955 21.6069 16.259 21.2569 16.866L20.7629 17.723C20.3899 18.371 20.2029 18.695 19.8849 18.823C19.5679 18.953 19.2089 18.851 18.4899 18.647L17.2699 18.304C16.8111 18.1987 16.3299 18.2585 15.9109 18.473L15.5749 18.667C15.2149 18.897 14.9389 19.237 14.7869 19.635L14.4529 20.632C14.2329 21.292 14.1229 21.622 13.8619 21.812C13.6009 22 13.2529 22 12.5589 22H11.4439C10.7499 22 10.4029 22 10.1409 21.811C9.87992 21.622 9.76992 21.293 9.55092 20.633" stroke="black" stroke-width="1.5" stroke-linecap="round" stroke-linejoin="round"/>
<path d="M2.73696 18.78C3.81696 17.7 7.48896 14.064 7.84896 13.644C8.22996 13.2 7.92096 12.6 8.10496 10.74C8.19396 9.84005 8.38696 9.16605 8.94096 8.66405C9.60096 8.04005 10.141 8.04005 12.001 7.99805C13.621 8.04005 13.813 7.86005 13.981 8.28005C14.101 8.58005 13.741 8.76005 13.309 9.24005C12.349 10.2 11.785 10.68 11.731 10.98C11.341 12.3 12.877 13.08 13.717 12.24C14.035 11.922 15.505 10.44 15.649 10.32C15.757 10.224 16.016 10.228 16.141 10.38C16.249 10.486 16.261 10.5 16.249 10.98C16.239 11.424 16.243 12.062 16.245 12.72C16.246 13.572 16.201 14.52 15.841 15C15.121 16.08 13.921 16.14 12.841 16.188C11.821 16.248 10.981 16.14 10.717 16.332C10.501 16.44 9.36096 17.64 7.98096 19.02L5.52096 21.48C3.48096 23.1 1.23696 20.58 2.73696 18.78Z" stroke="black" stroke-width="1.5" stroke-linecap="round" stroke-linejoin="round"/>
</svg>
