<svg width="24" height="24" viewBox="0 0 24 24" fill="none" xmlns="http://www.w3.org/2000/svg">
<path d="M19.5056 17.25H14.25C14.051 17.25 13.8603 17.329 13.7196 17.4697C13.579 17.6103 13.5 17.8011 13.5 18V19.125C13.5 20.0207 13.8558 20.8798 14.4892 21.5131C15.1225 22.1465 15.9816 22.5023 16.8773 22.5023C17.773 22.5023 18.6321 22.1465 19.2654 21.5131C19.8988 20.8798 20.2546 20.0207 20.2546 19.125V18C20.2546 17.8012 20.1758 17.6106 20.0353 17.47C19.8949 17.3294 19.7043 17.2502 19.5056 17.25ZM18.7556 19.125C18.7556 19.6223 18.558 20.0992 18.2064 20.4508C17.8548 20.8025 17.3779 21 16.8806 21C16.3833 21 15.9064 20.8025 15.5548 20.4508C15.2031 20.0992 15.0056 19.6223 15.0056 19.125V18.75H18.7556V19.125ZM9.74996 15H4.49996C4.30105 15 4.11028 15.079 3.96963 15.2197C3.82898 15.3603 3.74996 15.5511 3.74996 15.75V16.875C3.74996 17.7701 4.10554 18.6285 4.73847 19.2615C5.37141 19.8944 6.22985 20.25 7.12496 20.25C8.02006 20.25 8.87851 19.8944 9.51144 19.2615C10.1444 18.6285 10.5 17.7701 10.5 16.875V15.75C10.5 15.5511 10.4209 15.3603 10.2803 15.2197C10.1396 15.079 9.94887 15 9.74996 15ZM8.99996 16.875C8.99996 17.3723 8.80241 17.8492 8.45078 18.2008C8.09915 18.5525 7.62224 18.75 7.12496 18.75C6.62768 18.75 6.15076 18.5525 5.79913 18.2008C5.4475 17.8492 5.24996 17.3723 5.24996 16.875V16.5H8.99996V16.875ZM7.12496 1.5C6.03371 1.5 4.97527 2.46656 4.14371 4.21875C2.83777 6.97312 2.40371 11.0625 4.1709 13.2187C4.24136 13.3048 4.33007 13.374 4.4306 13.4215C4.53112 13.469 4.64096 13.4936 4.75215 13.4934H9.49121C9.6024 13.4936 9.71223 13.469 9.81276 13.4215C9.91329 13.374 10.002 13.3048 10.0725 13.2187C11.8396 11.0625 11.4056 6.97031 10.0996 4.21875C9.26715 2.46656 8.20965 1.5 7.12496 1.5ZM9.10777 12H5.13558C4.06683 10.3031 4.45965 7.05937 5.50027 4.86469C6.10683 3.58312 6.7659 3 7.12496 3C7.48402 3 8.13933 3.58312 8.74683 4.86469C9.78371 7.05937 10.1765 10.3031 9.10777 12ZM14.5087 15.75H19.2478C19.359 15.7502 19.4688 15.7256 19.5693 15.6781C19.6698 15.6306 19.7586 15.5613 19.829 15.4753C21.5962 13.3191 21.1621 9.22687 19.8562 6.47531C19.0246 4.71656 17.9662 3.75 16.875 3.75C15.7837 3.75 14.729 4.71656 13.8965 6.46875C12.5906 9.22312 12.1565 13.3125 13.9237 15.4687C13.9942 15.5562 14.0832 15.6268 14.1844 15.6755C14.2856 15.7241 14.3964 15.7496 14.5087 15.75ZM15.2587 7.11469C15.8643 5.83312 16.5234 5.25 16.875 5.25C17.2265 5.25 17.8893 5.83312 18.4959 7.11469C19.5365 9.30937 19.9293 12.5522 18.8615 14.25H14.8921C13.8234 12.5531 14.2162 9.30937 15.2568 7.11469H15.2587Z" fill="#15242D"/>
</svg>
