<svg width="24" height="24" viewBox="0 0 24 24" fill="none" xmlns="http://www.w3.org/2000/svg">
<g clip-path="url(#clip0_4_669)">
<path d="M23.1085 12.8846C22.9393 15.0112 22.1632 17.0445 20.8723 18.743C19.5815 20.4415 17.8303 21.7337 15.8267 22.4662C13.8231 23.1986 11.6513 23.3406 9.56938 22.8751C7.48748 22.4096 5.58296 21.3562 4.08209 19.8402C2.58121 18.3242 1.54707 16.4092 1.10253 14.3227C0.657984 12.2362 0.821723 10.066 1.57429 8.06983C2.32686 6.07367 3.63663 4.3355 5.34798 3.06182C7.05933 1.78815 9.10034 1.03249 11.2285 0.884644" stroke="#15242D" stroke-width="2" stroke-linecap="round" stroke-linejoin="round"/>
<path d="M16.7828 13.8686C16.4732 14.6654 15.9699 15.3725 15.3184 15.9259C14.6669 16.4792 13.8877 16.8615 13.0514 17.0381C12.215 17.2146 11.3478 17.18 10.5282 16.9371C9.70856 16.6943 8.96241 16.251 8.35718 15.6474C7.75196 15.0437 7.30675 14.2987 7.06182 13.4797C6.81689 12.6607 6.77997 11.7936 6.95438 10.9568C7.1288 10.1199 7.50906 9.33979 8.06077 8.68685C8.61248 8.03392 9.31825 7.5288 10.1142 7.21718M12 12L16.2857 7.71432M16.2857 7.71432L19.7142 8.57146L23.1428 5.14289L19.7142 4.28575L18.8571 0.857178L15.4285 4.28575L16.2857 7.71432Z" stroke="#15242D" stroke-width="2" stroke-linecap="round" stroke-linejoin="round"/>
</g>
<defs>
<clipPath id="clip0_4_669">
<rect width="24" height="24" fill="white"/>
</clipPath>
</defs>
</svg>
